<svg width="270" height="80" viewBox="0 0 270 80" fill="none" xmlns="http://www.w3.org/2000/svg">
  <!-- Logo: Stylized eye with concentric rings -->
  <circle cx="50" cy="40" r="28" stroke="#818cf8" stroke-width="3" fill="none"/>
  <circle cx="50" cy="40" r="18" stroke="#a5b4fc" stroke-width="2" fill="none"/>
  <circle cx="50" cy="40" r="10" fill="#818cf8"/>
  <circle cx="50" cy="40" r="5" fill="#1e1b4b"/>
  <circle cx="52" cy="38" r="2" fill="white"/>
  <!-- "Argus" in Space Grotesk SemiBold -->
  <path d="M107.21 46L102.74 46L109.66 20.80L117.18 20.80L124.09 46L119.63 46L118.12 40.24L108.72 40.24L107.21 46ZM113.11 23.50L109.73 36.28L117.11 36.28L113.72 23.50L113.11 23.50ZM131.58 46L127.44 46L127.44 28.22L131.51 28.22L131.51 30.27L132.12 30.27Q132.52 29.15 133.45 28.65Q134.39 28.14 135.69 28.14L135.69 28.14L137.84 28.14L137.84 31.82L135.61 31.82Q133.81 31.82 132.70 32.77Q131.58 33.72 131.58 35.70L131.58 35.70L131.58 46ZM140.00 37.18L140.00 37.18L140.00 36.64Q140.00 33.83 141.12 31.83Q142.24 29.84 144.11 28.77Q145.98 27.71 148.21 27.71L148.21 27.71Q150.73 27.71 152.05 28.61Q153.36 29.51 153.97 30.56L153.97 30.56L154.58 30.56L154.58 28.22L158.62 28.22L158.62 49.38Q158.62 51.15 157.61 52.17Q156.60 53.20 154.87 53.20L154.87 53.20L142.92 53.20L142.92 49.60L153.47 49.60Q154.51 49.60 154.51 48.52L154.51 48.52L154.51 43.37L153.90 43.37Q153.50 43.98 152.82 44.61Q152.14 45.24 151.02 45.68Q149.90 46.11 148.21 46.11L148.21 46.11Q145.98 46.11 144.11 45.05Q142.24 43.98 141.12 41.99Q140.00 39.99 140.00 37.18ZM149.36 42.47L149.36 42.47Q151.60 42.47 153.07 41.05Q154.55 39.63 154.55 37.07L154.55 37.07L154.55 36.71Q154.55 34.12 153.09 32.72Q151.63 31.31 149.36 31.31L149.36 31.31Q147.13 31.31 145.64 32.72Q144.14 34.12 144.14 36.71L144.14 36.71L144.14 37.07Q144.14 39.63 145.64 41.05Q147.13 42.47 149.36 42.47ZM170.68 46.29L170.68 46.29Q168.62 46.29 167.04 45.37Q165.46 44.45 164.59 42.78Q163.73 41.10 163.73 38.87L163.73 38.87L163.73 28.22L167.83 28.22L167.83 38.55Q167.83 40.71 168.89 41.75Q169.96 42.80 171.90 42.80L171.90 42.80Q174.10 42.80 175.37 41.36Q176.65 39.92 176.65 37.22L176.65 37.22L176.65 28.22L180.76 28.22L180.76 46L176.72 46L176.72 43.52L176.11 43.52Q175.64 44.49 174.40 45.39Q173.16 46.29 170.68 46.29ZM193.36 46.50L193.36 46.50Q189.90 46.50 187.67 44.99Q185.44 43.48 184.97 40.56L184.97 40.56L188.78 39.59Q189.04 40.96 189.69 41.75Q190.33 42.54 191.29 42.87Q192.24 43.19 193.36 43.19L193.36 43.19Q195.05 43.19 195.89 42.58Q196.74 41.97 196.74 41.03L196.74 41.03Q196.74 40.06 195.93 39.59Q195.12 39.12 193.47 38.80L193.47 38.80L192.35 38.62Q190.51 38.26 189.00 37.63Q187.49 37 186.57 35.90Q185.65 34.80 185.65 33.11L185.65 33.11Q185.65 30.52 187.58 29.12Q189.50 27.71 192.64 27.71L192.64 27.71Q195.63 27.71 197.57 29.04Q199.51 30.38 200.09 32.61L200.09 32.61L196.27 33.76Q195.98 32.25 195.01 31.62Q194.04 30.99 192.64 30.99L192.64 30.99Q191.20 30.99 190.42 31.49Q189.65 32.00 189.65 32.93L189.65 32.93Q189.65 33.87 190.44 34.34Q191.23 34.80 192.56 35.02L192.56 35.02L193.68 35.24Q195.66 35.60 197.26 36.17Q198.86 36.75 199.80 37.83Q200.74 38.91 200.74 40.74L200.74 40.74Q200.74 43.52 198.74 45.01Q196.74 46.50 193.36 46.50Z" fill="#f9fafb"/>
  <!-- "Visual Regression Testing" in Space Grotesk SemiBold -->
  <path d="M107.38 64L104.70 64L102.28 54.90L103.90 54.90L105.95 63.00L106.13 63.00L108.20 54.90L109.81 54.90L107.38 64ZM112.50 64L111.01 64L111.01 57.58L112.50 57.58L112.50 64ZM111.75 56.76L111.75 56.76Q111.35 56.76 111.05 56.49Q110.76 56.23 110.76 55.78L110.76 55.78Q110.76 55.34 111.05 55.08Q111.35 54.81 111.75 54.81L111.75 54.81Q112.18 54.81 112.46 55.08Q112.74 55.34 112.74 55.78L112.74 55.78Q112.74 56.23 112.46 56.49Q112.18 56.76 111.75 56.76ZM117.05 64.18L117.05 64.18Q115.80 64.18 115.00 63.64Q114.19 63.09 114.02 62.04L114.02 62.04L115.40 61.69Q115.49 62.18 115.73 62.47Q115.96 62.75 116.31 62.87Q116.65 62.99 117.05 62.99L117.05 62.99Q117.66 62.99 117.97 62.77Q118.27 62.54 118.27 62.21L118.27 62.21Q118.27 61.85 117.98 61.69Q117.69 61.52 117.09 61.40L117.09 61.40L116.69 61.34Q116.03 61.20 115.48 60.98Q114.93 60.75 114.60 60.35Q114.27 59.96 114.27 59.35L114.27 59.35Q114.27 58.41 114.97 57.90Q115.66 57.40 116.79 57.40L116.79 57.40Q117.87 57.40 118.57 57.88Q119.28 58.36 119.48 59.16L119.48 59.16L118.11 59.58Q118.00 59.03 117.65 58.81Q117.30 58.58 116.79 58.58L116.79 58.58Q116.27 58.58 115.99 58.76Q115.71 58.94 115.71 59.28L115.71 59.28Q115.71 59.62 116.00 59.79Q116.29 59.96 116.77 60.03L116.77 60.03L117.17 60.11Q117.88 60.24 118.46 60.45Q119.04 60.66 119.38 61.05Q119.72 61.44 119.72 62.10L119.72 62.10Q119.72 63.10 119.00 63.64Q118.27 64.18 117.05 64.18ZM123.68 64.10L123.68 64.10Q122.94 64.10 122.37 63.77Q121.80 63.44 121.49 62.84Q121.17 62.23 121.17 61.43L121.17 61.43L121.17 57.58L122.66 57.58L122.66 61.31Q122.66 62.09 123.04 62.47Q123.42 62.84 124.12 62.84L124.12 62.84Q124.92 62.84 125.38 62.32Q125.84 61.80 125.84 60.83L125.84 60.83L125.84 57.58L127.32 57.58L127.32 64L125.87 64L125.87 63.10L125.65 63.10Q125.48 63.45 125.03 63.78Q124.58 64.10 123.68 64.10ZM131.21 64.18L131.21 64.18Q130.53 64.18 129.99 63.94Q129.44 63.70 129.12 63.25Q128.80 62.79 128.80 62.13L128.80 62.13Q128.80 61.48 129.12 61.04Q129.44 60.59 130.00 60.37Q130.56 60.14 131.27 60.14L131.27 60.14L133.13 60.14L133.13 59.75Q133.13 59.24 132.82 58.92Q132.51 58.60 131.85 58.60L131.85 58.60Q131.20 58.60 130.87 58.91Q130.53 59.22 130.43 59.70L130.43 59.70L129.05 59.24Q129.21 58.73 129.55 58.32Q129.90 57.90 130.47 57.65Q131.04 57.40 131.87 57.40L131.87 57.40Q133.13 57.40 133.86 58.03Q134.58 58.66 134.58 59.85L134.58 59.85L134.58 62.38Q134.58 62.77 134.94 62.77L134.94 62.77L135.49 62.77L135.49 64L134.43 64Q133.97 64 133.67 63.77Q133.37 63.53 133.37 63.13L133.37 63.13L133.37 63.10L133.15 63.10Q133.07 63.28 132.87 63.55Q132.68 63.80 132.28 63.99Q131.89 64.18 131.21 64.18ZM131.46 62.96L131.46 62.96Q132.20 62.96 132.67 62.54Q133.13 62.12 133.13 61.40L133.13 61.40L133.13 61.27L131.37 61.27Q130.88 61.27 130.59 61.48Q130.29 61.69 130.29 62.09L130.29 62.09Q130.29 62.48 130.60 62.72Q130.91 62.96 131.46 62.96ZM138.22 64L136.72 64L136.72 54.90L138.22 54.90L138.22 64ZM144.95 64L143.38 64L143.38 54.90L147.26 54.90Q148.12 54.90 148.76 55.20Q149.40 55.50 149.75 56.04Q150.11 56.58 150.11 57.33L150.11 57.33L150.11 57.47Q150.11 58.32 149.71 58.83Q149.31 59.33 148.73 59.57L148.73 59.57L148.73 59.77Q149.24 59.80 149.53 60.13Q149.83 60.45 149.83 61.00L149.83 61.00L149.83 64L148.27 64L148.27 61.22Q148.27 60.89 148.09 60.69Q147.91 60.49 147.53 60.49L147.53 60.49L144.95 60.49L144.95 64ZM144.95 56.32L144.95 59.07L147.11 59.07Q147.78 59.07 148.17 58.72Q148.55 58.36 148.55 57.76L148.55 57.76L148.55 57.64Q148.55 57.03 148.17 56.67Q147.80 56.32 147.11 56.32L147.11 56.32L144.95 56.32ZM154.58 64.18L154.58 64.18Q153.62 64.18 152.89 63.77Q152.15 63.36 151.74 62.62Q151.33 61.87 151.33 60.87L151.33 60.87L151.33 60.71Q151.33 59.70 151.74 58.96Q152.14 58.22 152.87 57.81Q153.60 57.40 154.55 57.40L154.55 57.40Q155.48 57.40 156.18 57.81Q156.88 58.22 157.28 58.96Q157.66 59.70 157.66 60.69L157.66 60.69L157.66 61.22L152.84 61.22Q152.87 61.97 153.38 62.43Q153.88 62.88 154.62 62.88L154.62 62.88Q155.35 62.88 155.70 62.56Q156.05 62.24 156.24 61.84L156.24 61.84L157.47 62.48Q157.29 62.83 156.94 63.23Q156.60 63.62 156.03 63.90Q155.46 64.18 154.58 64.18ZM152.85 60.09L152.85 60.09L156.14 60.09Q156.09 59.45 155.66 59.07Q155.22 58.70 154.53 58.70L154.53 58.70Q153.82 58.70 153.39 59.07Q152.96 59.45 152.85 60.09ZM158.89 60.81L158.89 60.81L158.89 60.62Q158.89 59.61 159.29 58.88Q159.69 58.16 160.37 57.78Q161.04 57.40 161.85 57.40L161.85 57.40Q162.76 57.40 163.24 57.72Q163.71 58.05 163.93 58.42L163.93 58.42L164.15 58.42L164.15 57.58L165.61 57.58L165.61 65.22Q165.61 65.86 165.24 66.23Q164.88 66.60 164.26 66.60L164.26 66.60L159.94 66.60L159.94 65.30L163.75 65.30Q164.13 65.30 164.13 64.91L164.13 64.91L164.13 63.05L163.91 63.05Q163.76 63.27 163.51 63.50Q163.27 63.73 162.87 63.88Q162.46 64.04 161.85 64.04L161.85 64.04Q161.04 64.04 160.37 63.66Q159.69 63.27 159.29 62.55Q158.89 61.83 158.89 60.81ZM162.27 62.73L162.27 62.73Q163.07 62.73 163.61 62.21Q164.14 61.70 164.14 60.78L164.14 60.78L164.14 60.65Q164.14 59.71 163.61 59.20Q163.09 58.70 162.27 58.70L162.27 58.70Q161.46 58.70 160.92 59.20Q160.38 59.71 160.38 60.65L160.38 60.65L160.38 60.78Q160.38 61.70 160.92 62.21Q161.46 62.73 162.27 62.73ZM169.00 64L167.51 64L167.51 57.58L168.97 57.58L168.97 58.32L169.20 58.32Q169.34 57.92 169.68 57.73Q170.01 57.55 170.48 57.55L170.48 57.55L171.26 57.55L171.26 58.88L170.46 58.88Q169.81 58.88 169.40 59.22Q169.00 59.57 169.00 60.28L169.00 60.28L169.00 64ZM175.29 64.18L175.29 64.18Q174.33 64.18 173.60 63.77Q172.86 63.36 172.45 62.62Q172.04 61.87 172.04 60.87L172.04 60.87L172.04 60.71Q172.04 59.70 172.45 58.96Q172.85 58.22 173.58 57.81Q174.30 57.40 175.25 57.40L175.25 57.40Q176.19 57.40 176.89 57.81Q177.59 58.22 177.98 58.96Q178.37 59.70 178.37 60.69L178.37 60.69L178.37 61.22L173.55 61.22Q173.58 61.97 174.08 62.43Q174.59 62.88 175.33 62.88L175.33 62.88Q176.06 62.88 176.41 62.56Q176.76 62.24 176.94 61.84L176.94 61.84L178.18 62.48Q178.00 62.83 177.65 63.23Q177.31 63.62 176.74 63.90Q176.16 64.18 175.29 64.18ZM173.56 60.09L173.56 60.09L176.85 60.09Q176.80 59.45 176.37 59.07Q175.93 58.70 175.24 58.70L175.24 58.70Q174.53 58.70 174.10 59.07Q173.67 59.45 173.56 60.09ZM182.56 64.18L182.56 64.18Q181.31 64.18 180.51 63.64Q179.70 63.09 179.53 62.04L179.53 62.04L180.91 61.69Q181.00 62.18 181.23 62.47Q181.47 62.75 181.81 62.87Q182.16 62.99 182.56 62.99L182.56 62.99Q183.17 62.99 183.48 62.77Q183.78 62.54 183.78 62.21L183.78 62.21Q183.78 61.85 183.49 61.69Q183.20 61.52 182.60 61.40L182.60 61.40L182.20 61.34Q181.53 61.20 180.99 60.98Q180.44 60.75 180.11 60.35Q179.78 59.96 179.78 59.35L179.78 59.35Q179.78 58.41 180.47 57.90Q181.17 57.40 182.30 57.40L182.30 57.40Q183.38 57.40 184.08 57.88Q184.78 58.36 184.99 59.16L184.99 59.16L183.61 59.58Q183.51 59.03 183.16 58.81Q182.81 58.58 182.30 58.58L182.30 58.58Q181.78 58.58 181.50 58.76Q181.22 58.94 181.22 59.28L181.22 59.28Q181.22 59.62 181.51 59.79Q181.79 59.96 182.27 60.03L182.27 60.03L182.68 60.11Q183.39 60.24 183.97 60.45Q184.55 60.66 184.89 61.05Q185.22 61.44 185.22 62.10L185.22 62.10Q185.22 63.10 184.50 63.64Q183.78 64.18 182.56 64.18ZM189.38 64.18L189.38 64.18Q188.14 64.18 187.33 63.64Q186.52 63.09 186.36 62.04L186.36 62.04L187.73 61.69Q187.82 62.18 188.06 62.47Q188.29 62.75 188.64 62.87Q188.98 62.99 189.38 62.99L189.38 62.99Q190.00 62.99 190.30 62.77Q190.61 62.54 190.61 62.21L190.61 62.21Q190.61 61.85 190.31 61.69Q190.02 61.52 189.42 61.40L189.42 61.40L189.02 61.34Q188.36 61.20 187.81 60.98Q187.27 60.75 186.93 60.35Q186.60 59.96 186.60 59.35L186.60 59.35Q186.60 58.41 187.30 57.90Q187.99 57.40 189.12 57.40L189.12 57.40Q190.20 57.40 190.91 57.88Q191.61 58.36 191.82 59.16L191.82 59.16L190.44 59.58Q190.33 59.03 189.98 58.81Q189.63 58.58 189.12 58.58L189.12 58.58Q188.60 58.58 188.33 58.76Q188.05 58.94 188.05 59.28L188.05 59.28Q188.05 59.62 188.33 59.79Q188.62 59.96 189.10 60.03L189.10 60.03L189.50 60.11Q190.22 60.24 190.80 60.45Q191.37 60.66 191.71 61.05Q192.05 61.44 192.05 62.10L192.05 62.10Q192.05 63.10 191.33 63.64Q190.61 64.18 189.38 64.18ZM195.05 64L193.56 64L193.56 57.58L195.05 57.58L195.05 64ZM194.30 56.76L194.30 56.76Q193.90 56.76 193.60 56.49Q193.31 56.23 193.31 55.78L193.31 55.78Q193.31 55.34 193.60 55.08Q193.90 54.81 194.30 54.81L194.30 54.81Q194.73 54.81 195.01 55.08Q195.29 55.34 195.29 55.78L195.29 55.78Q195.29 56.23 195.01 56.49Q194.73 56.76 194.30 56.76ZM199.99 64.18L199.99 64.18Q199.03 64.18 198.27 63.79Q197.51 63.39 197.07 62.65Q196.64 61.92 196.64 60.89L196.64 60.89L196.64 60.69Q196.64 59.66 197.07 58.92Q197.51 58.18 198.27 57.79Q199.03 57.40 199.99 57.40L199.99 57.40Q200.95 57.40 201.71 57.79Q202.46 58.18 202.90 58.92Q203.33 59.66 203.33 60.69L203.33 60.69L203.33 60.89Q203.33 61.92 202.90 62.65Q202.46 63.39 201.71 63.79Q200.95 64.18 199.99 64.18ZM199.99 62.86L199.99 62.86Q200.81 62.86 201.33 62.33Q201.85 61.80 201.85 60.85L201.85 60.85L201.85 60.72Q201.85 59.77 201.33 59.25Q200.81 58.72 199.99 58.72L199.99 58.72Q199.17 58.72 198.65 59.25Q198.13 59.77 198.13 60.72L198.13 60.72L198.13 60.85Q198.13 61.80 198.65 62.33Q199.17 62.86 199.99 62.86ZM206.41 64L204.92 64L204.92 57.58L206.39 57.58L206.39 58.48L206.61 58.48Q206.78 58.11 207.22 57.79Q207.66 57.46 208.56 57.46L208.56 57.46Q209.30 57.46 209.87 57.80Q210.44 58.14 210.76 58.73Q211.08 59.33 211.08 60.15L211.08 60.15L211.08 64L209.59 64L209.59 60.27Q209.59 59.49 209.20 59.11Q208.82 58.72 208.12 58.72L208.12 58.72Q207.32 58.72 206.87 59.25Q206.41 59.77 206.41 60.75L206.41 60.75L206.41 64ZM219.51 64L217.95 64L217.95 56.32L215.23 56.32L215.23 54.90L222.22 54.90L222.22 56.32L219.51 56.32L219.51 64ZM225.19 64.18L225.19 64.18Q224.22 64.18 223.49 63.77Q222.76 63.36 222.35 62.62Q221.94 61.87 221.94 60.87L221.94 60.87L221.94 60.71Q221.94 59.70 222.34 58.96Q222.74 58.22 223.47 57.81Q224.20 57.40 225.15 57.40L225.15 57.40Q226.08 57.40 226.79 57.81Q227.49 58.22 227.88 58.96Q228.27 59.70 228.27 60.69L228.27 60.69L228.27 61.22L223.44 61.22Q223.47 61.97 223.98 62.43Q224.48 62.88 225.23 62.88L225.23 62.88Q225.95 62.88 226.30 62.56Q226.66 62.24 226.84 61.84L226.84 61.84L228.07 62.48Q227.89 62.83 227.55 63.23Q227.20 63.62 226.63 63.90Q226.06 64.18 225.19 64.18ZM223.46 60.09L223.46 60.09L226.75 60.09Q226.69 59.45 226.26 59.07Q225.82 58.70 225.13 58.70L225.13 58.70Q224.42 58.70 223.99 59.07Q223.56 59.45 223.46 60.09ZM232.45 64.18L232.45 64.18Q231.21 64.18 230.40 63.64Q229.59 63.09 229.42 62.04L229.42 62.04L230.80 61.69Q230.89 62.18 231.13 62.47Q231.36 62.75 231.71 62.87Q232.05 62.99 232.45 62.99L232.45 62.99Q233.06 62.99 233.37 62.77Q233.68 62.54 233.68 62.21L233.68 62.21Q233.68 61.85 233.38 61.69Q233.09 61.52 232.49 61.40L232.49 61.40L232.09 61.34Q231.43 61.20 230.88 60.98Q230.33 60.75 230.00 60.35Q229.67 59.96 229.67 59.35L229.67 59.35Q229.67 58.41 230.37 57.90Q231.06 57.40 232.19 57.40L232.19 57.40Q233.27 57.40 233.97 57.88Q234.68 58.36 234.88 59.16L234.88 59.16L233.51 59.58Q233.40 59.03 233.05 58.81Q232.70 58.58 232.19 58.58L232.19 58.58Q231.67 58.58 231.39 58.76Q231.11 58.94 231.11 59.28L231.11 59.28Q231.11 59.62 231.40 59.79Q231.69 59.96 232.17 60.03L232.17 60.03L232.57 60.11Q233.29 60.24 233.86 60.45Q234.44 60.66 234.78 61.05Q235.12 61.44 235.12 62.10L235.12 62.10Q235.12 63.10 234.40 63.64Q233.68 64.18 232.45 64.18ZM240.72 64L238.94 64Q238.32 64 237.95 63.63Q237.58 63.26 237.58 62.62L237.58 62.62L237.58 58.81L235.90 58.81L235.90 57.58L237.58 57.58L237.58 55.51L239.07 55.51L239.07 57.58L240.92 57.58L240.92 58.81L239.07 58.81L239.07 62.38Q239.07 62.77 239.43 62.77L239.43 62.77L240.72 62.77L240.72 64ZM243.93 64L242.44 64L242.44 57.58L243.93 57.58L243.93 64ZM243.18 56.76L243.18 56.76Q242.78 56.76 242.48 56.49Q242.19 56.23 242.19 55.78L242.19 55.78Q242.19 55.34 242.48 55.08Q242.78 54.81 243.18 54.81L243.18 54.81Q243.61 54.81 243.89 55.08Q244.17 55.34 244.17 55.78L244.17 55.78Q244.17 56.23 243.89 56.49Q243.61 56.76 243.18 56.76ZM247.33 64L245.83 64L245.83 57.58L247.30 57.58L247.30 58.48L247.52 58.48Q247.69 58.11 248.13 57.79Q248.57 57.46 249.47 57.46L249.47 57.46Q250.21 57.46 250.78 57.80Q251.36 58.14 251.67 58.73Q251.99 59.33 251.99 60.15L251.99 60.15L251.99 64L250.50 64L250.50 60.27Q250.50 59.49 250.11 59.11Q249.73 58.72 249.03 58.72L249.03 58.72Q248.24 58.72 247.78 59.25Q247.33 59.77 247.33 60.75L247.33 60.75L247.33 64ZM253.51 60.81L253.51 60.81L253.51 60.62Q253.51 59.61 253.92 58.88Q254.32 58.16 255.00 57.78Q255.67 57.40 256.48 57.40L256.48 57.40Q257.39 57.40 257.86 57.72Q258.34 58.05 258.56 58.42L258.56 58.42L258.78 58.42L258.78 57.58L260.23 57.58L260.23 65.22Q260.23 65.86 259.87 66.23Q259.51 66.60 258.88 66.60L258.88 66.60L254.57 66.60L254.57 65.30L258.38 65.30Q258.75 65.30 258.75 64.91L258.75 64.91L258.75 63.05L258.53 63.05Q258.39 63.27 258.14 63.50Q257.89 63.73 257.49 63.88Q257.09 64.04 256.48 64.04L256.48 64.04Q255.67 64.04 255.00 63.66Q254.32 63.27 253.92 62.55Q253.51 61.83 253.51 60.81ZM256.89 62.73L256.89 62.73Q257.70 62.73 258.23 62.21Q258.77 61.70 258.77 60.78L258.77 60.78L258.77 60.65Q258.77 59.71 258.24 59.20Q257.71 58.70 256.89 58.70L256.89 58.70Q256.09 58.70 255.55 59.20Q255.01 59.71 255.01 60.65L255.01 60.65L255.01 60.78Q255.01 61.70 255.55 62.21Q256.09 62.73 256.89 62.73Z" fill="#9ca3af"/>
</svg>
